<mxfile host="app.diagrams.net" modified="2022-04-09T22:15:32.909Z" agent="5.0 (Windows NT 10.0; Win64; x64) AppleWebKit/537.36 (KHTML, like Gecko) Chrome/100.0.4896.75 Safari/537.36" etag="xexIVHFuPdiu1m_pE8Zy" version="17.4.1" type="github">
  <diagram id="C5RBs43oDa-KdzZeNtuy" name="Page-1">
    <mxGraphModel dx="1616" dy="2078" grid="1" gridSize="10" guides="1" tooltips="1" connect="1" arrows="1" fold="1" page="1" pageScale="1" pageWidth="827" pageHeight="1169" math="0" shadow="0">
      <root>
        <mxCell id="WIyWlLk6GJQsqaUBKTNV-0" />
        <mxCell id="WIyWlLk6GJQsqaUBKTNV-1" parent="WIyWlLk6GJQsqaUBKTNV-0" />
        <mxCell id="QQxmGb34-d1W93Klb89s-0" value="CASINO" style="swimlane;html=1;childLayout=stackLayout;resizeParent=1;resizeParentMax=0;horizontal=0;startSize=20;horizontalStack=0;" vertex="1" parent="WIyWlLk6GJQsqaUBKTNV-1">
          <mxGeometry x="110" y="1010" width="1689" height="530" as="geometry" />
        </mxCell>
        <mxCell id="QQxmGb34-d1W93Klb89s-1" value="BEBESTIBLE" style="swimlane;html=1;startSize=20;horizontal=0;" vertex="1" parent="QQxmGb34-d1W93Klb89s-0">
          <mxGeometry x="20" width="1669" height="120" as="geometry" />
        </mxCell>
        <mxCell id="QQxmGb34-d1W93Klb89s-79" value="peticion de medidas recibidas" style="points=[[0.145,0.145,0],[0.5,0,0],[0.855,0.145,0],[1,0.5,0],[0.855,0.855,0],[0.5,1,0],[0.145,0.855,0],[0,0.5,0]];shape=mxgraph.bpmn.event;html=1;verticalLabelPosition=bottom;labelBackgroundColor=#ffffff;verticalAlign=top;align=center;perimeter=ellipsePerimeter;outlineConnect=0;aspect=fixed;outline=catching;symbol=message;" vertex="1" parent="QQxmGb34-d1W93Klb89s-1">
          <mxGeometry x="980" y="35" width="50" height="50" as="geometry" />
        </mxCell>
        <mxCell id="QQxmGb34-d1W93Klb89s-46" value="aplicar funcion consumir a jugador" style="points=[[0.25,0,0],[0.5,0,0],[0.75,0,0],[1,0.25,0],[1,0.5,0],[1,0.75,0],[0.75,1,0],[0.5,1,0],[0.25,1,0],[0,0.75,0],[0,0.5,0],[0,0.25,0]];shape=mxgraph.bpmn.task;whiteSpace=wrap;rectStyle=rounded;size=10;taskMarker=abstract;fillColor=#FFF2CC;" vertex="1" parent="QQxmGb34-d1W93Klb89s-1">
          <mxGeometry x="1094" y="40" width="101" height="45" as="geometry" />
        </mxCell>
        <mxCell id="QQxmGb34-d1W93Klb89s-2" value="jugador" style="swimlane;html=1;startSize=20;horizontal=0;" vertex="1" parent="QQxmGb34-d1W93Klb89s-0">
          <mxGeometry x="20" y="120" width="1669" height="190" as="geometry" />
        </mxCell>
        <mxCell id="QQxmGb34-d1W93Klb89s-72" value="" style="points=[[0.25,0.25,0],[0.5,0,0],[0.75,0.25,0],[1,0.5,0],[0.75,0.75,0],[0.5,1,0],[0.25,0.75,0],[0,0.5,0]];shape=mxgraph.bpmn.gateway2;html=1;verticalLabelPosition=bottom;labelBackgroundColor=#ffffff;verticalAlign=top;align=center;perimeter=rhombusPerimeter;outlineConnect=0;outline=none;symbol=none;" vertex="1" parent="QQxmGb34-d1W93Klb89s-2">
          <mxGeometry x="951" y="35.5" width="50" height="50" as="geometry" />
        </mxCell>
        <mxCell id="QQxmGb34-d1W93Klb89s-3" value="juego" style="swimlane;html=1;startSize=20;horizontal=0;" vertex="1" parent="QQxmGb34-d1W93Klb89s-0">
          <mxGeometry x="20" y="310" width="1669" height="220" as="geometry" />
        </mxCell>
        <mxCell id="QQxmGb34-d1W93Klb89s-83" value="meidadas de juego&amp;nbsp;&lt;br&gt;delgadas" style="points=[[0.145,0.145,0],[0.5,0,0],[0.855,0.145,0],[1,0.5,0],[0.855,0.855,0],[0.5,1,0],[0.145,0.855,0],[0,0.5,0]];shape=mxgraph.bpmn.event;html=1;verticalLabelPosition=bottom;labelBackgroundColor=#ffffff;verticalAlign=top;align=center;perimeter=ellipsePerimeter;outlineConnect=0;aspect=fixed;outline=catching;symbol=message;" vertex="1" parent="QQxmGb34-d1W93Klb89s-3">
          <mxGeometry x="1079" y="100" width="50" height="50" as="geometry" />
        </mxCell>
        <mxCell id="QQxmGb34-d1W93Klb89s-81" value="" style="dashed=1;dashPattern=8 4;endArrow=blockThin;endFill=1;startArrow=oval;startFill=0;endSize=6;startSize=4;rounded=0;exitX=0.5;exitY=1;exitDx=0;exitDy=0;exitPerimeter=0;entryX=0.5;entryY=0;entryDx=0;entryDy=0;entryPerimeter=0;" edge="1" parent="WIyWlLk6GJQsqaUBKTNV-1" source="QQxmGb34-d1W93Klb89s-71" target="QQxmGb34-d1W93Klb89s-79">
          <mxGeometry width="160" relative="1" as="geometry">
            <mxPoint x="520" y="800" as="sourcePoint" />
            <mxPoint x="680" y="800" as="targetPoint" />
          </mxGeometry>
        </mxCell>
        <mxCell id="QQxmGb34-d1W93Klb89s-82" value="" style="dashed=1;dashPattern=8 4;endArrow=blockThin;endFill=1;startArrow=oval;startFill=0;endSize=6;startSize=4;rounded=0;exitX=0.5;exitY=1;exitDx=0;exitDy=0;exitPerimeter=0;entryX=0.5;entryY=0;entryDx=0;entryDy=0;entryPerimeter=0;" edge="1" parent="WIyWlLk6GJQsqaUBKTNV-1" source="QQxmGb34-d1W93Klb89s-64" target="QQxmGb34-d1W93Klb89s-83">
          <mxGeometry width="160" relative="1" as="geometry">
            <mxPoint x="1011" y="480" as="sourcePoint" />
            <mxPoint x="860" y="1230" as="targetPoint" />
          </mxGeometry>
        </mxCell>
        <mxCell id="QQxmGb34-d1W93Klb89s-89" value="menu principal" style="swimlane;startSize=20;horizontal=0;fillColor=#FFFFFF;" vertex="1" parent="WIyWlLk6GJQsqaUBKTNV-1">
          <mxGeometry x="110" y="140" width="1400" height="790" as="geometry" />
        </mxCell>
        <mxCell id="QQxmGb34-d1W93Klb89s-95" style="edgeStyle=orthogonalEdgeStyle;rounded=0;orthogonalLoop=1;jettySize=auto;html=1;entryX=0;entryY=0.5;entryDx=0;entryDy=0;entryPerimeter=0;" edge="1" parent="QQxmGb34-d1W93Klb89s-89" source="QQxmGb34-d1W93Klb89s-90" target="QQxmGb34-d1W93Klb89s-6">
          <mxGeometry relative="1" as="geometry" />
        </mxCell>
        <mxCell id="QQxmGb34-d1W93Klb89s-96" style="edgeStyle=orthogonalEdgeStyle;rounded=0;orthogonalLoop=1;jettySize=auto;html=1;entryX=0;entryY=0.5;entryDx=0;entryDy=0;entryPerimeter=0;" edge="1" parent="QQxmGb34-d1W93Klb89s-89" source="QQxmGb34-d1W93Klb89s-90" target="QQxmGb34-d1W93Klb89s-16">
          <mxGeometry relative="1" as="geometry" />
        </mxCell>
        <mxCell id="QQxmGb34-d1W93Klb89s-97" style="edgeStyle=orthogonalEdgeStyle;rounded=0;orthogonalLoop=1;jettySize=auto;html=1;entryX=0;entryY=0.5;entryDx=0;entryDy=0;entryPerimeter=0;" edge="1" parent="QQxmGb34-d1W93Klb89s-89" source="QQxmGb34-d1W93Klb89s-90" target="QQxmGb34-d1W93Klb89s-17">
          <mxGeometry relative="1" as="geometry" />
        </mxCell>
        <mxCell id="QQxmGb34-d1W93Klb89s-90" value="desplegar opciones" style="points=[[0.25,0,0],[0.5,0,0],[0.75,0,0],[1,0.25,0],[1,0.5,0],[1,0.75,0],[0.75,1,0],[0.5,1,0],[0.25,1,0],[0,0.75,0],[0,0.5,0],[0,0.25,0]];shape=mxgraph.bpmn.task;whiteSpace=wrap;rectStyle=rounded;size=10;taskMarker=abstract;" vertex="1" parent="QQxmGb34-d1W93Klb89s-89">
          <mxGeometry x="80" y="275" width="80" height="40" as="geometry" />
        </mxCell>
        <mxCell id="QQxmGb34-d1W93Klb89s-6" value="mostrar opciones de juego" style="points=[[0.25,0,0],[0.5,0,0],[0.75,0,0],[1,0.25,0],[1,0.5,0],[1,0.75,0],[0.75,1,0],[0.5,1,0],[0.25,1,0],[0,0.75,0],[0,0.5,0],[0,0.25,0]];shape=mxgraph.bpmn.task;whiteSpace=wrap;rectStyle=rounded;size=10;taskMarker=abstract;" vertex="1" parent="QQxmGb34-d1W93Klb89s-89">
          <mxGeometry x="230" y="120" width="80" height="40" as="geometry" />
        </mxCell>
        <mxCell id="QQxmGb34-d1W93Klb89s-18" value="desplegar nombres de juegos" style="points=[[0.25,0,0],[0.5,0,0],[0.75,0,0],[1,0.25,0],[1,0.5,0],[1,0.75,0],[0.75,1,0],[0.5,1,0],[0.25,1,0],[0,0.75,0],[0,0.5,0],[0,0.25,0]];shape=mxgraph.bpmn.task;whiteSpace=wrap;rectStyle=rounded;size=10;taskMarker=abstract;" vertex="1" parent="QQxmGb34-d1W93Klb89s-89">
          <mxGeometry x="230" y="196" width="80" height="40" as="geometry" />
        </mxCell>
        <mxCell id="QQxmGb34-d1W93Klb89s-19" value="" style="edgeStyle=orthogonalEdgeStyle;rounded=0;orthogonalLoop=1;jettySize=auto;html=1;" edge="1" parent="QQxmGb34-d1W93Klb89s-89" source="QQxmGb34-d1W93Klb89s-6" target="QQxmGb34-d1W93Klb89s-18">
          <mxGeometry relative="1" as="geometry" />
        </mxCell>
        <mxCell id="QQxmGb34-d1W93Klb89s-54" value="juego escogdo" style="points=[[0.145,0.145,0],[0.5,0,0],[0.855,0.145,0],[1,0.5,0],[0.855,0.855,0],[0.5,1,0],[0.145,0.855,0],[0,0.5,0]];shape=mxgraph.bpmn.event;html=1;verticalLabelPosition=bottom;labelBackgroundColor=#ffffff;verticalAlign=top;align=center;perimeter=ellipsePerimeter;outlineConnect=0;aspect=fixed;outline=catching;symbol=message;fillColor=#F19C99;" vertex="1" parent="QQxmGb34-d1W93Klb89s-89">
          <mxGeometry x="351" y="110" width="50" height="50" as="geometry" />
        </mxCell>
        <mxCell id="QQxmGb34-d1W93Klb89s-55" style="edgeStyle=orthogonalEdgeStyle;rounded=0;orthogonalLoop=1;jettySize=auto;html=1;entryX=0;entryY=0.5;entryDx=0;entryDy=0;entryPerimeter=0;" edge="1" parent="QQxmGb34-d1W93Klb89s-89" source="QQxmGb34-d1W93Klb89s-18" target="QQxmGb34-d1W93Klb89s-54">
          <mxGeometry relative="1" as="geometry" />
        </mxCell>
        <mxCell id="QQxmGb34-d1W93Klb89s-56" value="recibir apuesta" style="points=[[0.25,0,0],[0.5,0,0],[0.75,0,0],[1,0.25,0],[1,0.5,0],[1,0.75,0],[0.75,1,0],[0.5,1,0],[0.25,1,0],[0,0.75,0],[0,0.5,0],[0,0.25,0]];shape=mxgraph.bpmn.task;whiteSpace=wrap;rectStyle=rounded;size=10;taskMarker=abstract;" vertex="1" parent="QQxmGb34-d1W93Klb89s-89">
          <mxGeometry x="444" y="115" width="80" height="40" as="geometry" />
        </mxCell>
        <mxCell id="QQxmGb34-d1W93Klb89s-57" style="edgeStyle=orthogonalEdgeStyle;rounded=0;orthogonalLoop=1;jettySize=auto;html=1;entryX=0.5;entryY=1;entryDx=0;entryDy=0;entryPerimeter=0;" edge="1" parent="QQxmGb34-d1W93Klb89s-89" source="QQxmGb34-d1W93Klb89s-54" target="QQxmGb34-d1W93Klb89s-56">
          <mxGeometry relative="1" as="geometry" />
        </mxCell>
        <mxCell id="QQxmGb34-d1W93Klb89s-58" value="validar apuesta" style="points=[[0.25,0,0],[0.5,0,0],[0.75,0,0],[1,0.25,0],[1,0.5,0],[1,0.75,0],[0.75,1,0],[0.5,1,0],[0.25,1,0],[0,0.75,0],[0,0.5,0],[0,0.25,0]];shape=mxgraph.bpmn.task;whiteSpace=wrap;rectStyle=rounded;size=10;taskMarker=abstract;" vertex="1" parent="QQxmGb34-d1W93Klb89s-89">
          <mxGeometry x="574" y="115" width="80" height="40" as="geometry" />
        </mxCell>
        <mxCell id="QQxmGb34-d1W93Klb89s-59" style="edgeStyle=orthogonalEdgeStyle;rounded=0;orthogonalLoop=1;jettySize=auto;html=1;entryX=0;entryY=0.5;entryDx=0;entryDy=0;entryPerimeter=0;" edge="1" parent="QQxmGb34-d1W93Klb89s-89" source="QQxmGb34-d1W93Klb89s-56" target="QQxmGb34-d1W93Klb89s-58">
          <mxGeometry relative="1" as="geometry" />
        </mxCell>
        <mxCell id="QQxmGb34-d1W93Klb89s-20" value="" style="points=[[0.25,0.25,0],[0.5,0,0],[0.75,0.25,0],[1,0.5,0],[0.75,0.75,0],[0.5,1,0],[0.25,0.75,0],[0,0.5,0]];shape=mxgraph.bpmn.gateway2;html=1;verticalLabelPosition=bottom;labelBackgroundColor=#ffffff;verticalAlign=top;align=center;perimeter=rhombusPerimeter;outlineConnect=0;outline=none;symbol=none;" vertex="1" parent="QQxmGb34-d1W93Klb89s-89">
          <mxGeometry x="714" y="110" width="50" height="50" as="geometry" />
        </mxCell>
        <mxCell id="QQxmGb34-d1W93Klb89s-60" style="edgeStyle=orthogonalEdgeStyle;rounded=0;orthogonalLoop=1;jettySize=auto;html=1;entryX=0;entryY=0.5;entryDx=0;entryDy=0;entryPerimeter=0;" edge="1" parent="QQxmGb34-d1W93Klb89s-89" source="QQxmGb34-d1W93Klb89s-58" target="QQxmGb34-d1W93Klb89s-20">
          <mxGeometry relative="1" as="geometry" />
        </mxCell>
        <mxCell id="QQxmGb34-d1W93Klb89s-21" value="notificar" style="points=[[0.25,0,0],[0.5,0,0],[0.75,0,0],[1,0.25,0],[1,0.5,0],[1,0.75,0],[0.75,1,0],[0.5,1,0],[0.25,1,0],[0,0.75,0],[0,0.5,0],[0,0.25,0]];shape=mxgraph.bpmn.task;whiteSpace=wrap;rectStyle=rounded;size=10;taskMarker=abstract;" vertex="1" parent="QQxmGb34-d1W93Klb89s-89">
          <mxGeometry x="824" y="120" width="80" height="40" as="geometry" />
        </mxCell>
        <mxCell id="QQxmGb34-d1W93Klb89s-23" style="edgeStyle=orthogonalEdgeStyle;rounded=0;orthogonalLoop=1;jettySize=auto;html=1;entryX=0.5;entryY=0;entryDx=0;entryDy=0;entryPerimeter=0;" edge="1" parent="QQxmGb34-d1W93Klb89s-89" source="QQxmGb34-d1W93Klb89s-20" target="QQxmGb34-d1W93Klb89s-21">
          <mxGeometry relative="1" as="geometry" />
        </mxCell>
        <mxCell id="QQxmGb34-d1W93Klb89s-24" style="edgeStyle=orthogonalEdgeStyle;rounded=0;orthogonalLoop=1;jettySize=auto;html=1;entryX=0.5;entryY=1;entryDx=0;entryDy=0;entryPerimeter=0;" edge="1" parent="QQxmGb34-d1W93Klb89s-89" source="QQxmGb34-d1W93Klb89s-20" target="QQxmGb34-d1W93Klb89s-21">
          <mxGeometry relative="1" as="geometry" />
        </mxCell>
        <mxCell id="QQxmGb34-d1W93Klb89s-22" value="calcular probabilidad de ganar" style="points=[[0.25,0,0],[0.5,0,0],[0.75,0,0],[1,0.25,0],[1,0.5,0],[1,0.75,0],[0.75,1,0],[0.5,1,0],[0.25,1,0],[0,0.75,0],[0,0.5,0],[0,0.25,0]];shape=mxgraph.bpmn.task;whiteSpace=wrap;rectStyle=rounded;size=10;taskMarker=abstract;" vertex="1" parent="QQxmGb34-d1W93Klb89s-89">
          <mxGeometry x="794" y="230" width="80" height="40" as="geometry" />
        </mxCell>
        <mxCell id="QQxmGb34-d1W93Klb89s-26" style="edgeStyle=orthogonalEdgeStyle;rounded=0;orthogonalLoop=1;jettySize=auto;html=1;entryX=0;entryY=0.5;entryDx=0;entryDy=0;entryPerimeter=0;" edge="1" parent="QQxmGb34-d1W93Klb89s-89" source="QQxmGb34-d1W93Klb89s-20" target="QQxmGb34-d1W93Klb89s-22">
          <mxGeometry relative="1" as="geometry">
            <mxPoint x="114" y="570" as="targetPoint" />
            <Array as="points">
              <mxPoint x="739" y="250" />
            </Array>
          </mxGeometry>
        </mxCell>
        <mxCell id="QQxmGb34-d1W93Klb89s-61" value="self.dinero &amp;lt; apuesta" style="text;html=1;align=center;verticalAlign=middle;resizable=0;points=[];autosize=1;strokeColor=none;fillColor=none;" vertex="1" parent="QQxmGb34-d1W93Klb89s-89">
          <mxGeometry x="774" y="80" width="130" height="20" as="geometry" />
        </mxCell>
        <mxCell id="QQxmGb34-d1W93Klb89s-62" value="not self.min_apuesta &amp;lt;= apuesta &amp;lt;= self.max_apuesta" style="text;html=1;align=center;verticalAlign=middle;resizable=0;points=[];autosize=1;strokeColor=none;fillColor=none;" vertex="1" parent="QQxmGb34-d1W93Klb89s-89">
          <mxGeometry x="754" y="176" width="300" height="20" as="geometry" />
        </mxCell>
        <mxCell id="QQxmGb34-d1W93Klb89s-63" value="apuesta valida&lt;br&gt;" style="text;html=1;align=center;verticalAlign=middle;resizable=0;points=[];autosize=1;strokeColor=none;fillColor=none;" vertex="1" parent="QQxmGb34-d1W93Klb89s-89">
          <mxGeometry x="734" y="216" width="90" height="20" as="geometry" />
        </mxCell>
        <mxCell id="QQxmGb34-d1W93Klb89s-28" value="jugar" style="points=[[0.25,0,0],[0.5,0,0],[0.75,0,0],[1,0.25,0],[1,0.5,0],[1,0.75,0],[0.75,1,0],[0.5,1,0],[0.25,1,0],[0,0.75,0],[0,0.5,0],[0,0.25,0]];shape=mxgraph.bpmn.task;whiteSpace=wrap;rectStyle=rounded;size=10;taskMarker=abstract;" vertex="1" parent="QQxmGb34-d1W93Klb89s-89">
          <mxGeometry x="954" y="230" width="80" height="40" as="geometry" />
        </mxCell>
        <mxCell id="QQxmGb34-d1W93Klb89s-29" value="" style="edgeStyle=orthogonalEdgeStyle;rounded=0;orthogonalLoop=1;jettySize=auto;html=1;" edge="1" parent="QQxmGb34-d1W93Klb89s-89" source="QQxmGb34-d1W93Klb89s-22" target="QQxmGb34-d1W93Klb89s-28">
          <mxGeometry relative="1" as="geometry" />
        </mxCell>
        <mxCell id="QQxmGb34-d1W93Klb89s-64" value="aplicar medidas de juego" style="points=[[0.25,0,0],[0.5,0,0],[0.75,0,0],[1,0.25,0],[1,0.5,0],[1,0.75,0],[0.75,1,0],[0.5,1,0],[0.25,1,0],[0,0.75,0],[0,0.5,0],[0,0.25,0]];shape=mxgraph.bpmn.task;whiteSpace=wrap;rectStyle=rounded;size=10;taskMarker=abstract;" vertex="1" parent="QQxmGb34-d1W93Klb89s-89">
          <mxGeometry x="1084" y="230" width="80" height="40" as="geometry" />
        </mxCell>
        <mxCell id="QQxmGb34-d1W93Klb89s-65" style="edgeStyle=orthogonalEdgeStyle;rounded=0;orthogonalLoop=1;jettySize=auto;html=1;" edge="1" parent="QQxmGb34-d1W93Klb89s-89" source="QQxmGb34-d1W93Klb89s-28" target="QQxmGb34-d1W93Klb89s-64">
          <mxGeometry relative="1" as="geometry" />
        </mxCell>
        <mxCell id="QQxmGb34-d1W93Klb89s-93" style="edgeStyle=orthogonalEdgeStyle;rounded=0;orthogonalLoop=1;jettySize=auto;html=1;entryX=0.5;entryY=0;entryDx=0;entryDy=0;entryPerimeter=0;" edge="1" parent="QQxmGb34-d1W93Klb89s-89" source="QQxmGb34-d1W93Klb89s-31" target="QQxmGb34-d1W93Klb89s-90">
          <mxGeometry relative="1" as="geometry">
            <Array as="points">
              <mxPoint x="1155" y="20" />
              <mxPoint x="86" y="20" />
            </Array>
          </mxGeometry>
        </mxCell>
        <mxCell id="QQxmGb34-d1W93Klb89s-31" value="juego terminado" style="points=[[0.145,0.145,0],[0.5,0,0],[0.855,0.145,0],[1,0.5,0],[0.855,0.855,0],[0.5,1,0],[0.145,0.855,0],[0,0.5,0]];shape=mxgraph.bpmn.event;html=1;verticalLabelPosition=bottom;labelBackgroundColor=#ffffff;verticalAlign=top;align=center;perimeter=ellipsePerimeter;outlineConnect=0;aspect=fixed;outline=catching;symbol=message;" vertex="1" parent="QQxmGb34-d1W93Klb89s-89">
          <mxGeometry x="1234" y="225" width="50" height="50" as="geometry" />
        </mxCell>
        <mxCell id="QQxmGb34-d1W93Klb89s-67" style="edgeStyle=orthogonalEdgeStyle;rounded=0;orthogonalLoop=1;jettySize=auto;html=1;entryX=0;entryY=0.5;entryDx=0;entryDy=0;entryPerimeter=0;" edge="1" parent="QQxmGb34-d1W93Klb89s-89" source="QQxmGb34-d1W93Klb89s-64" target="QQxmGb34-d1W93Klb89s-31">
          <mxGeometry relative="1" as="geometry" />
        </mxCell>
        <mxCell id="QQxmGb34-d1W93Klb89s-99" style="edgeStyle=orthogonalEdgeStyle;rounded=0;orthogonalLoop=1;jettySize=auto;html=1;entryX=0;entryY=0.5;entryDx=0;entryDy=0;entryPerimeter=0;" edge="1" parent="QQxmGb34-d1W93Klb89s-89" source="QQxmGb34-d1W93Klb89s-16" target="QQxmGb34-d1W93Klb89s-36">
          <mxGeometry relative="1" as="geometry" />
        </mxCell>
        <mxCell id="QQxmGb34-d1W93Klb89s-16" value="Comprar bebestible" style="points=[[0.25,0,0],[0.5,0,0],[0.75,0,0],[1,0.25,0],[1,0.5,0],[1,0.75,0],[0.75,1,0],[0.5,1,0],[0.25,1,0],[0,0.75,0],[0,0.5,0],[0,0.25,0]];shape=mxgraph.bpmn.task;whiteSpace=wrap;rectStyle=rounded;size=10;taskMarker=abstract;" vertex="1" parent="QQxmGb34-d1W93Klb89s-89">
          <mxGeometry x="230" y="320" width="80" height="40" as="geometry" />
        </mxCell>
        <mxCell id="QQxmGb34-d1W93Klb89s-100" style="edgeStyle=orthogonalEdgeStyle;rounded=0;orthogonalLoop=1;jettySize=auto;html=1;entryX=0;entryY=0.5;entryDx=0;entryDy=0;entryPerimeter=0;" edge="1" parent="QQxmGb34-d1W93Klb89s-89" source="QQxmGb34-d1W93Klb89s-36" target="QQxmGb34-d1W93Klb89s-35">
          <mxGeometry relative="1" as="geometry" />
        </mxCell>
        <mxCell id="QQxmGb34-d1W93Klb89s-36" value="mostrar  informacion de cada bebestible" style="points=[[0.25,0,0],[0.5,0,0],[0.75,0,0],[1,0.25,0],[1,0.5,0],[1,0.75,0],[0.75,1,0],[0.5,1,0],[0.25,1,0],[0,0.75,0],[0,0.5,0],[0,0.25,0]];shape=mxgraph.bpmn.task;whiteSpace=wrap;rectStyle=rounded;size=10;taskMarker=abstract;" vertex="1" parent="QQxmGb34-d1W93Klb89s-89">
          <mxGeometry x="360" y="310" width="106" height="60" as="geometry" />
        </mxCell>
        <mxCell id="QQxmGb34-d1W93Klb89s-101" style="edgeStyle=orthogonalEdgeStyle;rounded=0;orthogonalLoop=1;jettySize=auto;html=1;entryX=0;entryY=0.5;entryDx=0;entryDy=0;entryPerimeter=0;" edge="1" parent="QQxmGb34-d1W93Klb89s-89" source="QQxmGb34-d1W93Klb89s-35" target="QQxmGb34-d1W93Klb89s-40">
          <mxGeometry relative="1" as="geometry" />
        </mxCell>
        <mxCell id="QQxmGb34-d1W93Klb89s-102" style="edgeStyle=orthogonalEdgeStyle;rounded=0;orthogonalLoop=1;jettySize=auto;html=1;entryX=0;entryY=0.5;entryDx=0;entryDy=0;entryPerimeter=0;" edge="1" parent="QQxmGb34-d1W93Klb89s-89" source="QQxmGb34-d1W93Klb89s-35" target="QQxmGb34-d1W93Klb89s-41">
          <mxGeometry relative="1" as="geometry" />
        </mxCell>
        <mxCell id="QQxmGb34-d1W93Klb89s-103" style="edgeStyle=orthogonalEdgeStyle;rounded=0;orthogonalLoop=1;jettySize=auto;html=1;entryX=0;entryY=0.5;entryDx=0;entryDy=0;entryPerimeter=0;" edge="1" parent="QQxmGb34-d1W93Klb89s-89" source="QQxmGb34-d1W93Klb89s-35" target="QQxmGb34-d1W93Klb89s-39">
          <mxGeometry relative="1" as="geometry">
            <Array as="points">
              <mxPoint x="528" y="420" />
            </Array>
          </mxGeometry>
        </mxCell>
        <mxCell id="QQxmGb34-d1W93Klb89s-35" value="" style="points=[[0.25,0.25,0],[0.5,0,0],[0.75,0.25,0],[1,0.5,0],[0.75,0.75,0],[0.5,1,0],[0.25,0.75,0],[0,0.5,0]];shape=mxgraph.bpmn.gateway2;html=1;verticalLabelPosition=bottom;labelBackgroundColor=#ffffff;verticalAlign=top;align=center;perimeter=rhombusPerimeter;outlineConnect=0;outline=none;symbol=none;" vertex="1" parent="QQxmGb34-d1W93Klb89s-89">
          <mxGeometry x="503.5" y="315" width="50" height="50" as="geometry" />
        </mxCell>
        <mxCell id="QQxmGb34-d1W93Klb89s-40" value="salir" style="points=[[0.25,0,0],[0.5,0,0],[0.75,0,0],[1,0.25,0],[1,0.5,0],[1,0.75,0],[0.75,1,0],[0.5,1,0],[0.25,1,0],[0,0.75,0],[0,0.5,0],[0,0.25,0]];shape=mxgraph.bpmn.task;whiteSpace=wrap;rectStyle=rounded;size=10;taskMarker=abstract;" vertex="1" parent="QQxmGb34-d1W93Klb89s-89">
          <mxGeometry x="590" y="290" width="80" height="40" as="geometry" />
        </mxCell>
        <mxCell id="QQxmGb34-d1W93Klb89s-41" value="volver" style="points=[[0.25,0,0],[0.5,0,0],[0.75,0,0],[1,0.25,0],[1,0.5,0],[1,0.75,0],[0.75,1,0],[0.5,1,0],[0.25,1,0],[0,0.75,0],[0,0.5,0],[0,0.25,0]];shape=mxgraph.bpmn.task;whiteSpace=wrap;rectStyle=rounded;size=10;taskMarker=abstract;" vertex="1" parent="QQxmGb34-d1W93Klb89s-89">
          <mxGeometry x="590" y="350" width="80" height="40" as="geometry" />
        </mxCell>
        <mxCell id="QQxmGb34-d1W93Klb89s-39" value="comprar" style="points=[[0.25,0,0],[0.5,0,0],[0.75,0,0],[1,0.25,0],[1,0.5,0],[1,0.75,0],[0.75,1,0],[0.5,1,0],[0.25,1,0],[0,0.75,0],[0,0.5,0],[0,0.25,0]];shape=mxgraph.bpmn.task;whiteSpace=wrap;rectStyle=rounded;size=10;taskMarker=abstract;" vertex="1" parent="QQxmGb34-d1W93Klb89s-89">
          <mxGeometry x="590" y="400" width="80" height="40" as="geometry" />
        </mxCell>
        <mxCell id="QQxmGb34-d1W93Klb89s-42" value="comprobar que dinero sea suficiente" style="points=[[0.25,0,0],[0.5,0,0],[0.75,0,0],[1,0.25,0],[1,0.5,0],[1,0.75,0],[0.75,1,0],[0.5,1,0],[0.25,1,0],[0,0.75,0],[0,0.5,0],[0,0.25,0]];shape=mxgraph.bpmn.task;whiteSpace=wrap;rectStyle=rounded;size=10;taskMarker=abstract;" vertex="1" parent="QQxmGb34-d1W93Klb89s-89">
          <mxGeometry x="714" y="340" width="80" height="40" as="geometry" />
        </mxCell>
        <mxCell id="QQxmGb34-d1W93Klb89s-43" value="" style="edgeStyle=orthogonalEdgeStyle;rounded=0;orthogonalLoop=1;jettySize=auto;html=1;" edge="1" parent="QQxmGb34-d1W93Klb89s-89" source="QQxmGb34-d1W93Klb89s-39" target="QQxmGb34-d1W93Klb89s-42">
          <mxGeometry relative="1" as="geometry" />
        </mxCell>
        <mxCell id="QQxmGb34-d1W93Klb89s-105" style="edgeStyle=orthogonalEdgeStyle;rounded=0;orthogonalLoop=1;jettySize=auto;html=1;entryX=0;entryY=0.5;entryDx=0;entryDy=0;entryPerimeter=0;" edge="1" parent="QQxmGb34-d1W93Klb89s-89" source="QQxmGb34-d1W93Klb89s-44" target="QQxmGb34-d1W93Klb89s-71">
          <mxGeometry relative="1" as="geometry" />
        </mxCell>
        <mxCell id="QQxmGb34-d1W93Klb89s-107" style="edgeStyle=orthogonalEdgeStyle;rounded=0;orthogonalLoop=1;jettySize=auto;html=1;entryX=0;entryY=0.5;entryDx=0;entryDy=0;entryPerimeter=0;" edge="1" parent="QQxmGb34-d1W93Klb89s-89" source="QQxmGb34-d1W93Klb89s-44" target="QQxmGb34-d1W93Klb89s-47">
          <mxGeometry relative="1" as="geometry" />
        </mxCell>
        <mxCell id="QQxmGb34-d1W93Klb89s-44" value="" style="points=[[0.25,0.25,0],[0.5,0,0],[0.75,0.25,0],[1,0.5,0],[0.75,0.75,0],[0.5,1,0],[0.25,0.75,0],[0,0.5,0]];shape=mxgraph.bpmn.gateway2;html=1;verticalLabelPosition=bottom;labelBackgroundColor=#ffffff;verticalAlign=top;align=center;perimeter=rhombusPerimeter;outlineConnect=0;outline=none;symbol=none;" vertex="1" parent="QQxmGb34-d1W93Klb89s-89">
          <mxGeometry x="839" y="335" width="50" height="50" as="geometry" />
        </mxCell>
        <mxCell id="QQxmGb34-d1W93Klb89s-77" style="edgeStyle=orthogonalEdgeStyle;rounded=0;orthogonalLoop=1;jettySize=auto;html=1;entryX=0;entryY=0.5;entryDx=0;entryDy=0;entryPerimeter=0;" edge="1" parent="QQxmGb34-d1W93Klb89s-89" source="QQxmGb34-d1W93Klb89s-42" target="QQxmGb34-d1W93Klb89s-44">
          <mxGeometry relative="1" as="geometry" />
        </mxCell>
        <mxCell id="QQxmGb34-d1W93Klb89s-47" value="notificar" style="points=[[0.25,0,0],[0.5,0,0],[0.75,0,0],[1,0.25,0],[1,0.5,0],[1,0.75,0],[0.75,1,0],[0.5,1,0],[0.25,1,0],[0,0.75,0],[0,0.5,0],[0,0.25,0]];shape=mxgraph.bpmn.task;whiteSpace=wrap;rectStyle=rounded;size=10;taskMarker=abstract;" vertex="1" parent="QQxmGb34-d1W93Klb89s-89">
          <mxGeometry x="981" y="410" width="80" height="40" as="geometry" />
        </mxCell>
        <mxCell id="QQxmGb34-d1W93Klb89s-48" style="edgeStyle=orthogonalEdgeStyle;rounded=0;orthogonalLoop=1;jettySize=auto;html=1;entryX=0.5;entryY=1;entryDx=0;entryDy=0;entryPerimeter=0;" edge="1" parent="QQxmGb34-d1W93Klb89s-89" source="QQxmGb34-d1W93Klb89s-47" target="QQxmGb34-d1W93Klb89s-36">
          <mxGeometry relative="1" as="geometry">
            <Array as="points">
              <mxPoint x="1021" y="480" />
              <mxPoint x="413" y="480" />
            </Array>
          </mxGeometry>
        </mxCell>
        <mxCell id="QQxmGb34-d1W93Klb89s-71" value="aplicar medidas del bebestible" style="points=[[0.25,0,0],[0.5,0,0],[0.75,0,0],[1,0.25,0],[1,0.5,0],[1,0.75,0],[0.75,1,0],[0.5,1,0],[0.25,1,0],[0,0.75,0],[0,0.5,0],[0,0.25,0]];shape=mxgraph.bpmn.task;whiteSpace=wrap;rectStyle=rounded;size=10;taskMarker=abstract;" vertex="1" parent="QQxmGb34-d1W93Klb89s-89">
          <mxGeometry x="991" y="340" width="80" height="40" as="geometry" />
        </mxCell>
        <mxCell id="QQxmGb34-d1W93Klb89s-45" value="desontar dinero del jugador" style="points=[[0.25,0,0],[0.5,0,0],[0.75,0,0],[1,0.25,0],[1,0.5,0],[1,0.75,0],[0.75,1,0],[0.5,1,0],[0.25,1,0],[0,0.75,0],[0,0.5,0],[0,0.25,0]];shape=mxgraph.bpmn.task;whiteSpace=wrap;rectStyle=rounded;size=10;taskMarker=abstract;fillColor=#FFF2CC;" vertex="1" parent="QQxmGb34-d1W93Klb89s-89">
          <mxGeometry x="1140" y="340" width="80" height="40" as="geometry" />
        </mxCell>
        <mxCell id="QQxmGb34-d1W93Klb89s-86" style="edgeStyle=orthogonalEdgeStyle;rounded=0;orthogonalLoop=1;jettySize=auto;html=1;entryX=0;entryY=0.5;entryDx=0;entryDy=0;entryPerimeter=0;" edge="1" parent="QQxmGb34-d1W93Klb89s-89" source="QQxmGb34-d1W93Klb89s-71" target="QQxmGb34-d1W93Klb89s-45">
          <mxGeometry relative="1" as="geometry" />
        </mxCell>
        <mxCell id="QQxmGb34-d1W93Klb89s-73" value="dinero suficiente" style="text;html=1;align=center;verticalAlign=middle;resizable=0;points=[];autosize=1;strokeColor=none;fillColor=none;" vertex="1" parent="QQxmGb34-d1W93Klb89s-89">
          <mxGeometry x="904" y="340" width="100" height="20" as="geometry" />
        </mxCell>
        <mxCell id="QQxmGb34-d1W93Klb89s-25" style="edgeStyle=orthogonalEdgeStyle;rounded=0;orthogonalLoop=1;jettySize=auto;html=1;entryX=0.75;entryY=0;entryDx=0;entryDy=0;exitX=1;exitY=0.5;exitDx=0;exitDy=0;exitPerimeter=0;entryPerimeter=0;" edge="1" parent="QQxmGb34-d1W93Klb89s-89" source="QQxmGb34-d1W93Klb89s-21" target="QQxmGb34-d1W93Klb89s-90">
          <mxGeometry relative="1" as="geometry">
            <Array as="points">
              <mxPoint x="904" y="50" />
              <mxPoint x="140" y="50" />
            </Array>
          </mxGeometry>
        </mxCell>
        <mxCell id="QQxmGb34-d1W93Klb89s-50" value="mostrar información de jugador:&#xa;nombre&#xa;personalidad&#xa;energia &#xa;suerte&#xa;dinero&#xa;frustracion&#xa;ego &#xa;carisma&#xa;confianza&#xa;juego favorito" style="points=[[0.25,0,0],[0.5,0,0],[0.75,0,0],[1,0.25,0],[1,0.5,0],[1,0.75,0],[0.75,1,0],[0.5,1,0],[0.25,1,0],[0,0.75,0],[0,0.5,0],[0,0.25,0]];shape=mxgraph.bpmn.task;whiteSpace=wrap;rectStyle=rounded;size=10;taskMarker=abstract;isLoopSub=1;fillColor=#FFFFFF;" vertex="1" parent="QQxmGb34-d1W93Klb89s-89">
          <mxGeometry x="444" y="510" width="139" height="210" as="geometry" />
        </mxCell>
        <mxCell id="QQxmGb34-d1W93Klb89s-17" value="mostrar habilidades jugrador" style="points=[[0.25,0,0],[0.5,0,0],[0.75,0,0],[1,0.25,0],[1,0.5,0],[1,0.75,0],[0.75,1,0],[0.5,1,0],[0.25,1,0],[0,0.75,0],[0,0.5,0],[0,0.25,0]];shape=mxgraph.bpmn.task;whiteSpace=wrap;rectStyle=rounded;size=10;taskMarker=abstract;" vertex="1" parent="QQxmGb34-d1W93Klb89s-89">
          <mxGeometry x="230" y="595" width="80" height="40" as="geometry" />
        </mxCell>
        <mxCell id="QQxmGb34-d1W93Klb89s-52" style="edgeStyle=orthogonalEdgeStyle;rounded=0;orthogonalLoop=1;jettySize=auto;html=1;entryX=0;entryY=0.5;entryDx=0;entryDy=0;entryPerimeter=0;" edge="1" parent="QQxmGb34-d1W93Klb89s-89" source="QQxmGb34-d1W93Klb89s-17" target="QQxmGb34-d1W93Klb89s-50">
          <mxGeometry relative="1" as="geometry" />
        </mxCell>
        <mxCell id="QQxmGb34-d1W93Klb89s-51" value="mostrar deuda con BigCat" style="points=[[0.25,0,0],[0.5,0,0],[0.75,0,0],[1,0.25,0],[1,0.5,0],[1,0.75,0],[0.75,1,0],[0.5,1,0],[0.25,1,0],[0,0.75,0],[0,0.5,0],[0,0.25,0]];shape=mxgraph.bpmn.task;whiteSpace=wrap;rectStyle=rounded;size=10;taskMarker=abstract;" vertex="1" parent="QQxmGb34-d1W93Klb89s-89">
          <mxGeometry x="473.5" y="740" width="80" height="40" as="geometry" />
        </mxCell>
        <mxCell id="QQxmGb34-d1W93Klb89s-53" style="edgeStyle=orthogonalEdgeStyle;rounded=0;orthogonalLoop=1;jettySize=auto;html=1;entryX=0;entryY=0.5;entryDx=0;entryDy=0;entryPerimeter=0;" edge="1" parent="QQxmGb34-d1W93Klb89s-89" target="QQxmGb34-d1W93Klb89s-51">
          <mxGeometry relative="1" as="geometry">
            <mxPoint x="270" y="620" as="sourcePoint" />
            <Array as="points">
              <mxPoint x="270" y="760" />
            </Array>
          </mxGeometry>
        </mxCell>
        <mxCell id="QQxmGb34-d1W93Klb89s-76" value="dinero insuficiente" style="text;html=1;align=center;verticalAlign=middle;resizable=0;points=[];autosize=1;strokeColor=none;fillColor=none;" vertex="1" parent="QQxmGb34-d1W93Klb89s-89">
          <mxGeometry x="874" y="390" width="110" height="20" as="geometry" />
        </mxCell>
        <mxCell id="QQxmGb34-d1W93Klb89s-108" value="menu inicial" style="swimlane;startSize=20;horizontal=0;fillColor=#FFFFFF;" vertex="1" parent="WIyWlLk6GJQsqaUBKTNV-1">
          <mxGeometry x="110" y="-10" width="1390" height="120" as="geometry" />
        </mxCell>
        <mxCell id="QQxmGb34-d1W93Klb89s-8" value="iniciar partidad" style="points=[[0.25,0,0],[0.5,0,0],[0.75,0,0],[1,0.25,0],[1,0.5,0],[1,0.75,0],[0.75,1,0],[0.5,1,0],[0.25,1,0],[0,0.75,0],[0,0.5,0],[0,0.25,0]];shape=mxgraph.bpmn.task;whiteSpace=wrap;rectStyle=rounded;size=10;taskMarker=abstract;" vertex="1" parent="QQxmGb34-d1W93Klb89s-108">
          <mxGeometry x="50" y="30" width="80" height="40" as="geometry" />
        </mxCell>
        <mxCell id="QQxmGb34-d1W93Klb89s-9" value="opciones jugador" style="points=[[0.25,0,0],[0.5,0,0],[0.75,0,0],[1,0.25,0],[1,0.5,0],[1,0.75,0],[0.75,1,0],[0.5,1,0],[0.25,1,0],[0,0.75,0],[0,0.5,0],[0,0.25,0]];shape=mxgraph.bpmn.task;whiteSpace=wrap;rectStyle=rounded;size=10;taskMarker=abstract;" vertex="1" parent="QQxmGb34-d1W93Klb89s-108">
          <mxGeometry x="164" y="30" width="80" height="40" as="geometry" />
        </mxCell>
        <mxCell id="QQxmGb34-d1W93Klb89s-85" style="edgeStyle=orthogonalEdgeStyle;rounded=0;orthogonalLoop=1;jettySize=auto;html=1;exitX=0.5;exitY=1;exitDx=0;exitDy=0;exitPerimeter=0;entryX=0.25;entryY=1;entryDx=0;entryDy=0;entryPerimeter=0;" edge="1" parent="QQxmGb34-d1W93Klb89s-108" source="QQxmGb34-d1W93Klb89s-9" target="QQxmGb34-d1W93Klb89s-9">
          <mxGeometry relative="1" as="geometry" />
        </mxCell>
        <mxCell id="QQxmGb34-d1W93Klb89s-10" value="" style="edgeStyle=orthogonalEdgeStyle;rounded=0;orthogonalLoop=1;jettySize=auto;html=1;" edge="1" parent="QQxmGb34-d1W93Klb89s-108" source="QQxmGb34-d1W93Klb89s-8" target="QQxmGb34-d1W93Klb89s-9">
          <mxGeometry relative="1" as="geometry" />
        </mxCell>
        <mxCell id="QQxmGb34-d1W93Klb89s-12" value="jugador elegido" style="points=[[0.145,0.145,0],[0.5,0,0],[0.855,0.145,0],[1,0.5,0],[0.855,0.855,0],[0.5,1,0],[0.145,0.855,0],[0,0.5,0]];shape=mxgraph.bpmn.event;html=1;verticalLabelPosition=bottom;labelBackgroundColor=#ffffff;verticalAlign=top;align=center;perimeter=ellipsePerimeter;outlineConnect=0;aspect=fixed;outline=catching;symbol=message;fillColor=#F19C99;" vertex="1" parent="QQxmGb34-d1W93Klb89s-108">
          <mxGeometry x="279.5" y="25" width="50" height="50" as="geometry" />
        </mxCell>
        <mxCell id="QQxmGb34-d1W93Klb89s-13" style="edgeStyle=orthogonalEdgeStyle;rounded=0;orthogonalLoop=1;jettySize=auto;html=1;entryX=0;entryY=0.5;entryDx=0;entryDy=0;entryPerimeter=0;" edge="1" parent="QQxmGb34-d1W93Klb89s-108" source="QQxmGb34-d1W93Klb89s-9" target="QQxmGb34-d1W93Klb89s-12">
          <mxGeometry relative="1" as="geometry" />
        </mxCell>
      </root>
    </mxGraphModel>
  </diagram>
</mxfile>
